PathFileType	4	(X/Y/Z)	TVC_20_BWA5_walk_RCNL2025.trc
DataRate	CameraRate	NumFrames	NumMarkers	Units	OrigDataRate	OrigDataStartFrame	OrigNumFrames
100	100	9	27	mm	100	56	220
Frame#	Time	R_Shoulder			L_Shoulder			C7			J_Notch			R_Elbow			L_Elbow			R_Wrist			L_Wrist			R_Asis			L_Asis			R_Psis			L_Psis			Sacral			Thoracic			Sternum			R_Thigh_Lateral			R_Knee_Lateral			R_Shank_Lateral			R_Ankle_Lateral			R_Heel			R_Toe			L_Thigh_Lateral			L_Knee_Lateral			L_Shank_Lateral			L_Ankle_Lateral			L_Heel			L_Toe		
		X1	Y1	Z1	X2	Y2	Z2	X3	Y3	Z3	X4	Y4	Z4	X5	Y5	Z5	X6	Y6	Z6	X7	Y7	Z7	X8	Y8	Z8	X9	Y9	Z9	X10	Y10	Z10	X11	Y11	Z11	X12	Y12	Z12	X13	Y13	Z13	X14	Y14	Z14	X15	Y15	Z15	X16	Y16	Z16	X17	Y17	Z17	X18	Y18	Z18	X19	Y19	Z19	X20	Y20	Z20	X21	Y21	Z21	X22	Y22	Z22	X23	Y23	Z23	X24	Y24	Z24	X25	Y25	Z25	X26	Y26	Z26	X27	Y27	Z27
56	0.55000000	-1358.718384	1349.218140	371.015686	-1405.307129	1376.190918	7.970109	-1408.254272	1416.578613	206.172241	-1276.995728	1289.231201	179.325241	-1370.438965	1037.274292	471.197632	-1528.149536	1088.264893	-87.588280	-1181.126404	868.152405	411.566559	-1466.020630	835.309387	-101.818962	-1376.189087	960.456604	334.914368	-1340.349365	964.901550	58.062000	-1514.530151	962.112671	218.927216	-1515.468384	948.249329	128.075302	-1514.999268	955.181000	173.501259	-1532.032593	1198.128906	183.180038	-1289.352051	1137.491455	181.633499	-1474.842896	640.310852	385.986481	-1518.495117	442.492645	308.042419	-1649.338989	307.398193	349.325989	-1772.291992	114.653091	255.225006	-1823.597412	120.369972	206.982162	-1659.070312	27.510090	231.689972	-1274.582642	613.844421	-5.743423	-1184.602295	485.072052	77.281685	-1168.839111	297.221466	32.682148	-1127.065063	67.403778	118.920937	-1170.983032	54.304020	163.219223	-987.124023	48.170181	144.598022
57	0.56000000	-1344.625610	1350.017578	369.939209	-1390.822510	1375.828735	6.723557	-1394.169556	1417.013550	204.772476	-1261.770630	1290.117920	177.941895	-1357.970825	1038.016968	470.162018	-1511.614380	1086.967285	-88.367432	-1169.355530	867.424500	412.322083	-1448.940247	834.043213	-101.614334	-1360.591675	960.473083	334.268433	-1325.312622	965.979370	57.478481	-1499.399780	961.959229	218.822433	-1500.349365	948.564209	127.979744	-1499.874573	955.261719	173.401089	-1517.539673	1198.182617	182.642365	-1274.544312	1138.073975	180.967911	-1456.064819	640.107788	387.041656	-1498.110229	440.455597	311.300964	-1633.562622	309.657654	352.119598	-1763.659546	122.451195	258.468658	-1814.046265	131.953629	210.674255	-1658.354492	27.333376	231.531052	-1254.520752	617.921448	-5.052604	-1167.835083	486.474487	78.359680	-1153.063232	298.803406	33.824490	-1124.410034	67.085411	119.736382	-1169.338013	55.338005	163.490799	-984.907776	43.105824	146.461823
58	0.57000000	-1330.535767	1351.170532	368.900604	-1376.427490	1375.821045	5.533722	-1380.119141	1417.807739	203.416748	-1245.799927	1291.766235	176.282501	-1345.694458	1039.125488	469.171570	-1494.846802	1085.922241	-89.155685	-1157.890320	866.948120	413.167816	-1431.271606	833.120819	-101.522789	-1344.942139	960.736450	333.540100	-1310.417969	967.506958	56.792576	-1484.288696	962.139587	218.800232	-1485.327026	949.293457	127.971687	-1484.807861	955.716522	173.385960	-1503.069092	1198.578247	182.208908	-1259.786377	1139.030640	180.279541	-1435.973999	639.810608	388.103241	-1476.335205	438.433563	314.580017	-1616.220093	312.127655	354.999634	-1753.393799	131.024628	261.787567	-1802.532227	144.470505	214.429550	-1657.116943	27.594849	231.461807	-1234.430298	622.471741	-4.654549	-1151.789062	487.916534	79.250931	-1137.703491	300.600159	34.661419	-1122.423218	67.020805	120.235619	-1168.296997	56.311943	163.386887	-983.230957	39.408798	148.002258
59	0.58000000	-1316.475952	1352.658813	367.917023	-1362.146729	1376.169556	4.418705	-1366.119385	1418.947510	202.126373	-1228.821289	1294.202881	174.172150	-1333.593994	1040.584229	468.243652	-1477.927246	1085.156738	-89.942749	-1146.709656	866.730713	414.092743	-1413.058411	832.586060	-101.545044	-1329.323730	961.228149	332.764648	-1295.665894	969.435913	56.041000	-1469.227905	962.655701	218.841522	-1470.421875	950.427795	128.024963	-1469.824890	956.541748	173.433243	-1488.638672	1199.307739	181.872528	-1245.104492	1140.345459	179.593124	-1414.684204	639.359070	389.196625	-1453.265991	436.483398	317.773712	-1597.206665	314.671448	357.913025	-1741.431030	140.280289	265.112000	-1789.078247	157.691147	218.175522	-1654.987183	28.590887	231.687958	-1215.091797	626.961487	-4.546229	-1136.775635	489.242889	79.923073	-1123.466675	302.244965	35.263626	-1120.955322	67.141197	120.513298	-1167.652710	57.154099	163.066498	-981.945129	37.012840	149.229446
60	0.59000000	-1302.472412	1354.459717	367.004059	-1347.999146	1376.870361	3.393432	-1352.184692	1420.414307	200.919968	-1212.033813	1296.837036	172.107620	-1321.652832	1042.371948	467.393402	-1460.935547	1084.694580	-90.722130	-1135.789246	866.775574	415.085861	-1394.354431	832.477875	-101.678787	-1313.811157	961.930664	331.978333	-1281.057251	971.706604	55.261757	-1454.245605	963.506531	218.926804	-1455.652222	951.952515	128.112946	-1454.948914	957.729523	173.519875	-1474.264282	1200.358032	181.623398	-1230.520996	1141.997437	178.933624	-1392.382202	638.708374	390.334320	-1429.035645	434.677246	320.776917	-1576.464355	317.147644	360.789825	-1727.746338	150.068527	268.374634	-1773.781006	171.299011	221.830414	-1651.479614	30.597069	232.444153	-1197.385986	630.829407	-4.691817	-1123.049072	490.326294	80.346954	-1111.013916	303.452087	35.664398	-1119.898804	67.369148	120.648705	-1167.262451	57.821030	162.661438	-980.964905	35.698483	150.157349
61	0.60000000	-1288.549194	1356.545898	366.175140	-1333.996826	1377.913818	2.469277	-1338.326050	1422.185547	199.812759	-1198.929199	1298.107910	171.570587	-1309.855469	1044.463623	466.633453	-1443.945923	1084.554321	-91.491241	-1125.102417	867.082245	416.136658	-1375.221497	832.828735	-101.918770	-1298.464478	962.831604	331.214417	-1266.595093	974.253174	54.489624	-1439.366699	964.687805	219.038162	-1441.034180	953.848206	128.211807	-1440.200439	959.268005	173.624985	-1459.960083	1201.712158	181.449844	-1216.054077	1143.961792	178.324173	-1369.340942	637.867126	391.498596	-1403.805298	433.102417	323.496552	-1554.011597	319.453461	363.546112	-1712.340454	160.178345	271.511780	-1756.779175	184.897598	225.296722	-1646.023438	33.796402	233.958069	-1182.096802	633.621216	-5.039572	-1110.783447	491.082825	80.502762	-1100.823975	304.068542	35.855530	-1119.178223	67.632515	120.700989	-1167.034180	58.297363	162.265915	-980.247070	35.175385	150.806320
62	0.61000000	-1274.727051	1358.886597	365.440796	-1320.144897	1379.285278	1.653908	-1324.551758	1424.234619	198.816315	-1193.608521	1296.503296	174.529419	-1298.187134	1046.830811	465.973724	-1427.023560	1084.749146	-92.251175	-1114.621643	867.646423	417.235519	-1355.726990	833.663116	-102.257130	-1283.323730	963.926208	330.498962	-1252.286377	977.009338	53.751862	-1424.612183	966.191467	219.160767	-1426.582031	956.090149	128.303497	-1425.597107	961.140808	173.732132	-1445.737549	1203.348999	181.339081	-1201.717651	1146.210693	177.784073	-1345.922607	636.935242	392.636230	-1377.754028	431.859314	325.862091	-1529.964844	321.560486	366.093414	-1695.224487	170.337997	274.466522	-1738.218384	198.030273	228.466003	-1638.022461	38.216465	236.407700	-1169.675171	635.122620	-5.539976	-1100.063477	491.478149	80.385452	-1093.108765	304.083130	35.802979	-1118.737061	67.874779	120.708755	-1166.912964	58.592110	161.934311	-979.766174	35.151196	151.207428
63	0.62000000	-1261.021851	1361.448242	364.808136	-1306.442871	1380.965576	0.951304	-1310.866821	1426.531982	197.938309	-1195.231934	1292.778809	180.870087	-1286.635376	1049.442749	465.421265	-1410.221680	1085.285889	-93.006195	-1104.318909	868.460327	418.374237	-1335.941040	834.996552	-102.683792	-1268.408081	965.219238	329.847015	-1238.143433	979.913452	53.064911	-1409.998291	968.004883	219.284088	-1412.307251	958.648315	128.377777	-1411.152771	963.326599	173.830933	-1431.606201	1205.243774	181.277924	-1187.521606	1148.713257	177.326904	-1322.544922	636.117859	393.666290	-1351.068726	431.056122	327.832764	-1504.542358	323.528961	368.352386	-1676.409912	180.224869	277.194580	-1718.225830	210.214966	231.238800	-1626.930176	43.701385	239.876785	-1160.076416	635.432739	-6.150268	-1090.887207	491.525513	80.008080	-1087.796875	303.601532	35.471195	-1118.527344	68.059616	120.693024	-1166.867432	58.732456	161.685608	-979.497192	35.377254	151.399429
64	0.63000000	-1247.443481	1364.194702	364.280487	-1292.884644	1382.931763	0.361893	-1297.273193	1429.044556	197.182541	-1194.590576	1290.453857	186.404694	-1275.189331	1052.267090	464.980347	-1393.580933	1086.164551	-93.763115	-1094.166870	869.512329	419.546112	-1315.933167	836.835236	-103.187130	-1253.714966	966.723877	329.260193	-1224.182373	982.912170	52.432606	-1395.536743	970.110352	219.402390	-1398.218628	961.487122	128.432877	-1396.877686	965.798737	173.917633	-1417.572754	1207.367920	181.253387	-1173.471924	1151.436279	176.959183	-1299.612549	635.695007	394.498993	-1323.934570	430.799713	329.398743	-1478.044312	325.494659	370.268311	-1655.906738	189.486160	279.671417	-1696.901245	220.988266	233.553268	-1612.321655	49.927883	244.319748	-1152.773804	634.929626	-6.834364	-1083.179443	491.276428	79.402275	-1084.578613	302.801514	34.845100	-1118.503540	68.170380	120.662628	-1166.881104	58.756184	161.512573	-979.408081	35.671162	151.423492
